<svg width="196" height="57" viewBox="0 0 196 57" fill="none" xmlns="http://www.w3.org/2000/svg">
<path d="M48.756 10.3215C47.8347 11.1449 49.0799 12.5406 50.0025 11.7162C53.1392 8.91305 55.263 5.25779 56.1441 1.14542C56.2863 0.481403 55.6949 -0.106746 55.0337 0.0349431C47.5657 1.63525 41.6862 7.43432 39.9635 14.8552L36.767 18.0517C38.4564 12.5628 37.6981 6.4923 34.486 1.52829C34.1178 0.959427 33.2839 0.95931 32.9155 1.52829C28.7058 8.03428 28.7057 16.4421 32.9153 22.9482C33.19 23.3728 33.7628 23.507 34.1996 23.231C39.9881 19.565 46.8023 19.5494 52.2597 22.4408C48.126 24.6342 43.2897 25.1231 38.7651 23.7632C37.5804 23.407 37.0431 25.1988 38.2268 25.5546C43.76 27.2175 49.7342 26.3825 54.613 23.2257C55.1808 22.8583 55.183 22.0242 54.613 21.6553C49.6491 18.4433 43.5786 17.685 38.0896 19.3743C41.9283 15.5356 41.6458 15.9016 41.7161 15.5732C43.0769 9.22296 47.7908 4.13924 53.9259 2.25403C52.9755 5.36487 51.2075 8.13061 48.756 10.3215ZM33.7008 3.88217C36.464 9.09823 36.464 15.3784 33.7008 20.5947C30.9376 15.3785 30.9376 9.09834 33.7008 3.88217ZM47.9741 34.0451C41.3602 29.7656 33.1972 28.9164 25.9679 31.4962L31.1179 26.3461C31.9916 25.4724 30.6704 24.1486 29.7952 25.0235L24.6452 30.1735C27.225 22.9442 26.3759 14.7811 22.0964 8.16708C21.7281 7.59822 20.8942 7.5981 20.5259 8.16708C16.671 14.1246 15.5279 21.4688 17.3898 28.3166C17.7139 29.509 19.5193 29.0198 19.1947 27.8258C17.6058 21.982 18.3823 15.7473 21.3111 10.4893C25.4359 17.893 25.1895 27.0491 20.5741 34.2444L11.4077 43.4107C14.1471 36.4051 14.1933 28.5243 11.382 21.4089C10.9282 20.2597 9.18783 20.9454 9.64236 22.0962C12.7931 30.0704 12.1172 39.0702 7.87616 46.4687C2.65694 37.3676 2.91858 26.0159 8.66153 17.1406C9.3328 16.1033 7.76335 15.0855 7.09103 16.1244C0.812069 25.8286 0.678446 38.3076 6.68817 48.1307L0.286698 54.532C-0.587166 55.4059 0.734444 56.7294 1.60936 55.8547L8.46489 48.9991C17.3285 43.3066 28.6382 43.0613 37.7118 48.2648C30.6035 52.3326 21.9182 53.1238 14.1779 50.3472C13.0149 49.9298 12.3814 51.6899 13.5464 52.1078C22.0945 55.1743 31.9348 54.2799 40.0166 49.0504C40.5844 48.6829 40.5866 47.8488 40.0166 47.48C31.812 42.1711 21.6232 41.2548 12.7333 44.7307L21.4466 36.0174C29.623 40.9626 39.9504 40.8075 47.9739 35.6158C48.542 35.2481 48.5441 34.414 47.9741 34.0451ZM23.125 34.8304C30.1133 30.9371 38.664 30.9372 45.6521 34.8304C38.664 38.7236 30.1133 38.7238 23.125 34.8304Z" fill="#003940"/>
<path d="M63.0867 15.9211C63.0867 13.3475 63.5504 11.1218 64.4778 9.24376C65.4284 7.36576 66.7847 5.91669 68.5468 4.89654C70.3088 3.85321 72.4071 3.33154 74.8415 3.33154C77.2528 3.33154 79.3395 3.85321 81.1015 4.89654C82.8636 5.91669 84.2199 7.36576 85.1705 9.24376C86.1443 11.1218 86.6312 13.3359 86.6312 15.8863C86.6312 18.4599 86.1443 20.6972 85.1705 22.5984C84.2199 24.4764 82.8636 25.9371 81.1015 26.9804C79.3395 28.0237 77.2528 28.5454 74.8415 28.5454C72.4071 28.5454 70.3088 28.0237 68.5468 26.9804C66.8079 25.9371 65.4631 24.4764 64.5126 22.5984C63.562 20.6972 63.0867 18.4715 63.0867 15.9211ZM67.7817 15.9211C67.7817 18.6801 68.3729 20.8363 69.5553 22.3897C70.7378 23.9432 72.4998 24.7199 74.8415 24.7199C77.1137 24.7199 78.8642 23.9432 80.093 22.3897C81.3218 20.8363 81.9362 18.6801 81.9362 15.9211C81.9362 13.1389 81.3218 10.9826 80.093 9.45243C78.8874 7.92221 77.1369 7.1571 74.8415 7.1571C72.4998 7.1571 70.7378 7.92221 69.5553 9.45243C68.3729 10.9826 67.7817 13.1389 67.7817 15.9211Z" fill="#040B0C"/>
<path d="M90.5649 28.1976V3.67932H101.276C103.966 3.67932 106.041 4.31691 107.502 5.5921C108.986 6.86728 109.727 8.64095 109.727 10.9131C109.727 12.4201 109.391 13.7069 108.719 14.7734C108.07 15.8399 107.131 16.663 105.902 17.2426C104.673 17.7991 103.224 18.0773 101.555 18.0773L102.042 17.4165H103.224C104.198 17.4165 105.067 17.6716 105.832 18.1816C106.597 18.6917 107.223 19.4684 107.71 20.5118L111.292 28.1976H106.354L102.737 20.2335C102.413 19.422 101.914 18.8888 101.242 18.6338C100.592 18.3787 99.8042 18.2512 98.8768 18.2512H95.0512V28.1976H90.5649ZM95.0512 14.9473H100.546C102.123 14.9473 103.317 14.6227 104.128 13.9735C104.963 13.3012 105.38 12.3274 105.38 11.0522C105.38 9.77702 104.963 8.81483 104.128 8.16565C103.317 7.51647 102.123 7.19187 100.546 7.19187H95.0512V14.9473Z" fill="#040B0C"/>
<path d="M125.526 28.5454C122.975 28.5454 120.784 28.0353 118.953 27.0152C117.144 25.9719 115.753 24.5112 114.779 22.6332C113.806 20.732 113.319 18.4946 113.319 15.9211C113.319 13.3475 113.806 11.1218 114.779 9.24376C115.753 7.36576 117.144 5.91669 118.953 4.89654C120.784 3.85321 122.975 3.33154 125.526 3.33154C127.241 3.33154 128.783 3.57499 130.151 4.06188C131.542 4.54876 132.736 5.2675 133.733 6.2181L132.273 9.76543C131.183 8.88439 130.128 8.25839 129.108 7.88743C128.111 7.49328 126.963 7.29621 125.665 7.29621C123.184 7.29621 121.283 8.04972 119.961 9.55676C118.663 11.0406 118.014 13.1621 118.014 15.9211C118.014 18.6801 118.663 20.8132 119.961 22.3202C121.283 23.8272 123.184 24.5807 125.665 24.5807C126.963 24.5807 128.111 24.3953 129.108 24.0243C130.128 23.6302 131.183 22.981 132.273 22.0767L133.733 25.6241C132.736 26.5515 131.542 27.2702 130.151 27.7803C128.783 28.2904 127.241 28.5454 125.526 28.5454Z" fill="#040B0C"/>
<path d="M137.231 28.1976V3.67932H141.717V13.904H154.272V3.67932H158.758V28.1976H154.272V17.6252H141.717V28.1976H137.231Z" fill="#040B0C"/>
<path d="M163.468 28.1976V3.67932H167.954V28.1976H163.468Z" fill="#040B0C"/>
<path d="M172.655 28.1976V3.67932H181.558C184.364 3.67932 186.729 4.16621 188.653 5.13999C190.601 6.09058 192.073 7.48169 193.07 9.31331C194.067 11.1218 194.565 13.3243 194.565 15.9211C194.565 18.4946 194.067 20.6972 193.07 22.5289C192.073 24.3605 190.601 25.7632 188.653 26.737C186.729 27.7107 184.364 28.1976 181.558 28.1976H172.655ZM177.142 24.4764H181.28C184.248 24.4764 186.45 23.7693 187.888 22.355C189.325 20.9407 190.044 18.796 190.044 15.9211C190.044 13.0229 189.325 10.8783 187.888 9.4872C186.45 8.07291 184.248 7.36576 181.28 7.36576H177.142V24.4764Z" fill="#040B0C"/>
<path d="M63.4004 52.3489V34.6317H64.9585V42.6735H76.3427V34.6317H77.9008V52.3489H76.3427V44.0557H64.9585V52.3489H63.4004Z" fill="#040B0C"/>
<path d="M84.5534 52.3489V34.6317H95.5607V35.9636H86.0612V42.6987H95.0078V44.0306H86.0612V51.0169H95.5607V52.3489H84.5534Z" fill="#040B0C"/>
<path d="M101.264 52.3489V34.6317H108.251C110.077 34.6317 111.493 35.0589 112.498 35.9134C113.503 36.7678 114.006 37.9741 114.006 39.5322C114.006 40.5374 113.779 41.4003 113.327 42.1207C112.875 42.8243 112.246 43.3688 111.442 43.7542C110.638 44.1228 109.708 44.307 108.653 44.307L109.13 44.0306H109.482C110.169 44.0306 110.781 44.1981 111.317 44.5332C111.853 44.8515 112.28 45.4044 112.598 46.1918L115.061 52.3489H113.352L111.04 46.4683C110.722 45.6138 110.261 45.0693 109.658 44.8348C109.055 44.5835 108.284 44.4578 107.346 44.4578H102.822V52.3489H101.264ZM102.822 43.151H108.05C109.474 43.151 110.554 42.8411 111.292 42.2212C112.045 41.6013 112.422 40.7133 112.422 39.5573C112.422 38.3846 112.045 37.4966 111.292 36.8935C110.554 36.2736 109.474 35.9636 108.05 35.9636H102.822V43.151Z" fill="#040B0C"/>
<path d="M120.577 52.3489V34.6317H122.135V52.3489H120.577Z" fill="#040B0C"/>
<path d="M133.144 52.3489V35.9888H126.71V34.6317H141.11V35.9888H134.702V52.3489H133.144Z" fill="#040B0C"/>
<path d="M142.204 52.3489L149.919 34.6317H151.326L159.167 52.3489H157.533L155.322 47.2473L156.051 47.6243H145.144L145.998 47.2473L143.837 52.3489H142.204ZM150.597 36.5165L146.3 46.5939L145.722 46.2924H155.473L155.045 46.5939L150.648 36.5165H150.597Z" fill="#040B0C"/>
<path d="M171.853 52.5499C169.943 52.5499 168.343 52.1981 167.053 51.4944C165.78 50.774 164.816 49.7353 164.163 48.3782C163.526 47.0212 163.208 45.3877 163.208 43.4777C163.208 41.6013 163.543 39.9929 164.213 38.6526C164.883 37.2956 165.838 36.2568 167.078 35.5364C168.335 34.7992 169.842 34.4307 171.602 34.4307C172.892 34.4307 174.006 34.6317 174.944 35.0338C175.882 35.4191 176.737 35.9888 177.507 36.7427L176.829 37.9992C176.276 37.4799 175.74 37.0694 175.22 36.7678C174.718 36.4495 174.173 36.2233 173.587 36.0893C173.017 35.9385 172.355 35.8631 171.602 35.8631C169.44 35.8631 167.773 36.5333 166.601 37.8736C165.445 39.1971 164.867 41.0736 164.867 43.5029C164.867 45.9824 165.436 47.8756 166.575 49.1824C167.715 50.4892 169.482 51.1426 171.878 51.1426C172.766 51.1426 173.612 51.0588 174.416 50.8913C175.22 50.7238 175.983 50.4808 176.703 50.1625L176.326 51.1677V44.5332H171.627V43.2264H177.708V51.3185C177.038 51.6703 176.159 51.9635 175.07 52.1981C173.997 52.4326 172.925 52.5499 171.853 52.5499Z" fill="#040B0C"/>
<path d="M184.181 52.3489V34.6317H195.188V35.9636H185.689V42.6987H194.635V44.0306H185.689V51.0169H195.188V52.3489H184.181Z" fill="#040B0C"/>
</svg>
